<?xml version="1.0" encoding="utf-8"?>
<!-- Generator: Adobe Illustrator 22.1.0, SVG Export Plug-In . SVG Version: 6.00 Build 0)  -->
<svg version="1.1" id="Layer_1" xmlns="http://www.w3.org/2000/svg" xmlns:xlink="http://www.w3.org/1999/xlink" x="0px" y="0px"
	 viewBox="0 0 841.9 841.9" style="enable-background:new 0 0 841.9 841.9;" xml:space="preserve">
<style type="text/css">
	.st0{fill:#5A071F;}
</style>
<g>
	<polygon class="st0" points="718.2,505.7 661.2,505.7 565,344 511,409.7 511,347.7 647.1,174.7 704.3,174.7 598,303.9 	"/>
	<polygon class="st0" points="311.6,387.6 195.8,174.7 142.7,174.7 142.7,505.7 198.1,505.7 198.1,282 280.5,433.3 	"/>
	<g>
		
			<rect x="343" y="293.7" transform="matrix(0.956 0.2933 -0.2933 0.956 106.2606 -111.6002)" class="st0" width="164.7" height="9.8"/>
		
			<rect x="480.1" y="87.3" transform="matrix(-0.2933 0.956 -0.956 -0.2933 748.7705 -368.0487)" class="st0" width="60.6" height="10.8"/>
		
			<rect x="439.9" y="277.6" transform="matrix(0.956 0.2933 -0.2933 0.956 109.1115 -117.3158)" class="st0" width="11.9" height="55.2"/>
		<g>
			<path class="st0" d="M473.5,215c-29.5-9-46.1-40.4-37-69.8s40.4-46.1,69.8-37s46.1,40.4,37,69.8S502.9,224,473.5,215z
				 M503.4,117.5c-24.3-7.5-50.2,6.3-57.6,30.6s6.3,50.2,30.6,57.6c24.3,7.5,50.2-6.3,57.6-30.6S527.7,124.9,503.4,117.5z"/>
		</g>
		<g>
			<path class="st0" d="M491,544.2l-1.5-0.5l-2.9,15.1l-0.5-16.2l-1.3-0.4l-0.3-343.9l12.1-16.9l8.8,2.7l0.3,279.3l0.3,0.1
				c6.6,2,10.4,9.1,8.3,15.7c-1.5,4.9-5.7,8.2-10.5,8.8L491,544.2z"/>
		</g>
		<path class="st0" d="M472.8,174.3l-8.8-2.7L307.1,402.7c-0.1,0-0.1,0-0.2-0.1l-13.5,19.9c0.5,0.6,0.9,1.1,1.5,1.6L274,477.7
			l1.5,0.5l-6,14.2l9.5-13.1l1.3,0.4L473.4,195L472.8,174.3z"/>
	</g>
</g>
<g>
	<g>
		<path d="M159,645.1h-31.7V664h34.9l-1.5,10.2h-45.4v-65.4h45.1v10.2h-33.2v16.1H159V645.1z"/>
		<path d="M173.1,674.1v-65.4h15.5c8.6,14.9,25.5,43.5,28.8,50.6h0.2c-0.7-7.4-0.7-18.4-0.7-29.1v-21.5h11.2v65.4h-14.6
			c-7.6-13.3-25.9-45.3-29.4-52.8h-0.2c0.5,6.3,0.6,19,0.6,30.7v22.1H173.1z"/>
		<path d="M299.9,674.1h-9.1c-0.5-1.8-0.8-4.2-1-7.3c-3.4,4.8-9.5,8.3-19.5,8.3c-19,0-29.4-14.3-29.4-33c0-19.6,11.2-34.4,31.5-34.4
			c16.3,0,26.1,9.1,27.8,20.4h-12.3c-1.6-5.4-5.7-10.6-15.7-10.6c-14,0-18.6,11.5-18.6,24.1c0,12,5,23.6,18.6,23.6
			c13,0,15.7-8.9,15.7-16.5v-0.6h-15.7v-10.2h27.8V674.1z"/>
		<path d="M326.9,608.7v65.4h-12.3v-65.4H326.9z"/>
		<path d="M343,674.1v-65.4h15.5c8.6,14.9,25.5,43.5,28.8,50.6h0.2c-0.7-7.4-0.7-18.4-0.7-29.1v-21.5H398v65.4h-14.6
			c-7.6-13.3-25.9-45.3-29.4-52.8h-0.2c0.5,6.3,0.6,19,0.6,30.7v22.1H343z"/>
		<path d="M457.8,645.1h-31.7V664H461l-1.5,10.2h-45.4v-65.4h45.1v10.2h-33.2v16.1h31.7V645.1z"/>
		<path d="M515.6,645.1h-31.7V664h34.9l-1.5,10.2H472v-65.4h45.1v10.2h-33.2v16.1h31.7V645.1z"/>
		<path d="M541.8,647v27.1h-12v-65.4h27.7c14,0,21.5,7.7,21.5,17.8c0,8.7-4.8,13.6-10.1,15.5c4,1.3,8.8,4.9,8.8,16.5v3.1
			c0,4.4,0,9.7,0.9,12.6h-11.7c-1.2-2.8-1.3-7.8-1.3-14.5v-1.1c0-7.9-2.1-11.5-13-11.5H541.8z M541.8,637.1h12.7
			c8.5,0,12-3.2,12-9.3c0-5.9-3.8-9.2-11.4-9.2h-13.2V637.1z"/>
		<path d="M604.1,608.7v65.4h-12.3v-65.4H604.1z"/>
		<path d="M620.2,674.1v-65.4h15.5c8.6,14.9,25.5,43.5,28.8,50.6h0.2c-0.7-7.4-0.7-18.4-0.7-29.1v-21.5h11.2v65.4h-14.6
			c-7.6-13.3-25.9-45.3-29.4-52.8H631c0.5,6.3,0.6,19,0.6,30.7v22.1H620.2z"/>
		<path d="M747,674.1h-9.1c-0.5-1.8-0.8-4.2-1-7.3c-3.4,4.8-9.5,8.3-19.5,8.3c-19,0-29.4-14.3-29.4-33c0-19.6,11.2-34.4,31.5-34.4
			c16.3,0,26.1,9.1,27.8,20.4H735c-1.6-5.4-5.7-10.6-15.7-10.6c-14,0-18.6,11.5-18.6,24.1c0,12,5,23.6,18.6,23.6
			c13,0,15.7-8.9,15.7-16.5v-0.6h-15.7v-10.2H747V674.1z"/>
		<path d="M146.2,738.5c1.6,7,6.5,10.4,14.8,10.4c8.5,0,12-3.6,12-8.9c0-5.8-3.2-8.5-15-11.3c-17-4-21.7-10.1-21.7-19.1
			c0-10.8,8.1-18.6,23.3-18.6c16.8,0,23.5,9.2,24.4,18.5h-12.4c-0.9-4.6-3.6-9.2-12.4-9.2c-6.5,0-10.3,2.8-10.3,8
			c0,5.1,3.1,7.1,14,9.7c18.9,4.5,22.8,11.6,22.8,20.6c0,11.5-8.6,19.7-25.5,19.7c-16.6,0-24.7-8.5-26.2-19.7H146.2z"/>
		<path d="M241.3,728.3h-31.7v18.9h34.9l-1.5,10.2h-45.4v-65.4h45.1v10.2h-33.2v16.1h31.7V728.3z"/>
		<path d="M267.5,730.2v27.1h-12v-65.4h27.7c14,0,21.5,7.7,21.5,17.8c0,8.7-4.8,13.6-10.1,15.5c4,1.3,8.8,4.9,8.8,16.5v3.1
			c0,4.4,0,9.7,0.9,12.6h-11.7c-1.2-2.8-1.3-7.8-1.3-14.5v-1.1c0-7.9-2.1-11.5-13-11.5H267.5z M267.5,720.3h12.7
			c8.5,0,12-3.2,12-9.3c0-5.9-3.8-9.2-11.4-9.2h-13.2V720.3z"/>
		<path d="M333.1,757.3l-23.3-65.4h13.2l10.3,31.1c3.1,9.3,5.7,17.7,7.2,24.2h0.2c1.4-5.8,4.3-14.6,7.5-23.9l10.8-31.3h12.6
			l-24,65.4H333.1z"/>
		<path d="M392.2,691.9v65.4H380v-65.4H392.2z"/>
		<path d="M462.7,737.7c-2.7,11.8-11.6,20.5-27.5,20.5c-20.3,0-30.2-14.7-30.2-33.3c0-17.9,10-34,30.7-34c16.7,0,25.2,9.7,26.9,20.7
			h-12.3c-1.7-5.8-5.6-10.9-15-10.9c-12.6,0-17.6,11.4-17.6,23.8c0,11.7,4.5,24,18,24c9.5,0,13-6,14.6-10.7H462.7z"/>
		<path d="M518.6,728.3h-31.7v18.9h34.9l-1.5,10.2H475v-65.4h45.1v10.2h-33.2v16.1h31.7V728.3z"/>
		<path d="M540.5,738.5c1.6,7,6.5,10.4,14.8,10.4c8.5,0,12-3.6,12-8.9c0-5.8-3.2-8.5-15-11.3c-17-4-21.7-10.1-21.7-19.1
			c0-10.8,8.1-18.6,23.3-18.6c16.8,0,23.5,9.2,24.4,18.5h-12.4c-0.9-4.6-3.6-9.2-12.4-9.2c-6.5,0-10.3,2.8-10.3,8
			c0,5.1,3.1,7.1,14,9.7c18.9,4.5,22.8,11.6,22.8,20.6c0,11.5-8.6,19.7-25.5,19.7c-16.6,0-24.7-8.5-26.2-19.7H540.5z"/>
		<path d="M622.9,738.5c1.6,7,6.5,10.4,14.8,10.4c8.5,0,12-3.6,12-8.9c0-5.8-3.2-8.5-15-11.3c-17-4-21.7-10.1-21.7-19.1
			c0-10.8,8.1-18.6,23.3-18.6c16.8,0,23.5,9.2,24.4,18.5h-12.4c-0.9-4.6-3.6-9.2-12.4-9.2c-6.5,0-10.3,2.8-10.3,8
			c0,5.1,3.1,7.1,14,9.7c18.9,4.5,22.8,11.6,22.8,20.6c0,11.5-8.6,19.7-25.5,19.7c-16.6,0-24.7-8.5-26.2-19.7H622.9z"/>
		<path d="M685.5,740.7l-5.8,16.7h-12.1l22.6-65.4h15.3l23.6,65.4h-12.9l-6-16.7H685.5z M707.4,730.5c-5.2-15-8.3-23.9-9.8-29.5
			h-0.1c-1.6,6.1-5.1,16.7-9.2,29.5H707.4z"/>
	</g>
</g>
</svg>
